# xmcd CD database file
#
# Track frame offsets:
#	150
#	14114
#	27453
#	41182
#	55536
#	70955
#	83592
#	96698
#	109570
#	121557
#	136144
#	148521
#	163290
#	176317
#	190359
#	204062
#	216856
#	231313
#	245120
#	259916
#	274556
#	287895
#	303028
#	318136
#	331112
#
# Disc length: 4618 seconds
#
# Revision: 0
# Processed by: cddbd v1.5.1PL2 Copyright (c) Steve Scherf et al.
# Submitted via: CDex 1.51
#
DISCID=68120819
DTITLE=Duke Ellington - The Okeh Ellington [CD 1)
DYEAR=1991
DGENRE=Jazz
TTITLE0=East St. Louis Toodle-oo
TTITLE1=Hop Head
TTITLE2=Down in Our Alley Blues
TTITLE3=What Can a Poor Fellow Do
TTITLE4=Black and Tan Fantasy
TTITLE5=Chicago Stomp Down
TTITLE6=Sweet Mama
TTITLE7=Stack O'Lee Blues
TTITLE8=Bugle Call Rag
TTITLE9=Take it Easy
TTITLE10=Jubilee Stomp
TTITLE11=Harlem Twist
TTITLE12=Diga Diga Doo
TTITLE13=Doin' the New Low Down
TTITLE14=Black Beauty
TTITLE15=Swampy River
TTITLE16=The Mooche
TTITLE17=Move River
TTITLE18=Hot and Bothered
TTITLE19=The Blues with a Feelin'
TTITLE20=Goin' to Down
TTITLE21=Misty Mornin'
TTITLE22=I Must Have that Man
TTITLE23=Freeze and Melt
TTITLE24=Mississippi Moan
EXTD=YEAR: 1991
EXTT0=
EXTT1=
EXTT2=
EXTT3=
EXTT4=
EXTT5=
EXTT6=
EXTT7=
EXTT8=
EXTT9=
EXTT10=
EXTT11=
EXTT12=
EXTT13=
EXTT14=
EXTT15=
EXTT16=
EXTT17=
EXTT18=
EXTT19=
EXTT20=
EXTT21=
EXTT22=
EXTT23=
EXTT24=
PLAYORDER=
